<?xml version="1.0" standalone="no"?>
<!DOCTYPE svg PUBLIC "-//W3C//DTD SVG 20010904//EN"
 "http://www.w3.org/TR/2001/REC-SVG-20010904/DTD/svg10.dtd">
<svg version="1.0" xmlns="http://www.w3.org/2000/svg"
 width="260.000000pt" height="260.000000pt" viewBox="0 0 260.000000 260.000000"
 preserveAspectRatio="xMidYMid meet">
<metadata>
Created by potrace 1.14, written by Peter Selinger 2001-2017
</metadata>
<g transform="translate(0.000000,260.000000) scale(0.100000,-0.100000)"
fill="#000000" stroke="none">
<path d="M873 2553 c9 -2 23 -2 30 0 6 3 -1 5 -18 5 -16 0 -22 -2 -12 -5z"/>
<path d="M935 2541 c-55 -18 -265 -128 -270 -141 -3 -8 -38 -30 -78 -48 -195
-90 -440 -212 -447 -222 -3 -4 -22 -15 -42 -23 -29 -12 -38 -22 -43 -49 -3
-18 -1 -271 4 -563 6 -291 11 -554 11 -582 0 -51 2 -54 42 -80 23 -16 58 -45
76 -65 19 -21 39 -38 45 -38 5 0 25 -18 44 -40 19 -22 40 -40 47 -40 7 0 21
-9 31 -20 11 -12 28 -20 40 -18 12 1 33 -5 48 -15 14 -9 30 -17 36 -17 5 0 11
-6 14 -14 3 -7 19 -16 36 -19 17 -4 41 -16 53 -27 12 -11 28 -20 35 -20 7 0
13 -7 13 -15 0 -16 38 -38 83 -49 15 -3 27 -11 27 -16 0 -5 22 -19 49 -31 27
-11 52 -27 55 -35 3 -8 12 -14 21 -14 8 0 15 -4 15 -9 0 -5 10 -13 23 -16 12
-4 51 -21 87 -37 36 -17 80 -38 99 -47 44 -20 91 -65 91 -85 0 -9 8 -16 18
-16 9 0 30 -12 47 -26 34 -29 64 -28 152 8 41 17 52 26 57 49 4 23 11 29 31
29 15 0 32 6 40 13 7 8 39 21 72 31 32 9 81 27 108 40 28 13 74 29 103 36 28
8 52 17 52 21 0 4 10 11 22 15 12 3 28 13 35 20 8 7 39 21 71 31 31 10 59 20
62 23 3 4 21 12 40 19 76 29 90 36 90 47 0 6 18 16 40 23 22 6 40 15 40 19 0
4 20 13 45 20 24 6 54 20 65 29 11 10 39 22 63 28 l42 10 3 625 c2 469 -1 631
-10 648 -7 13 -27 26 -50 32 -21 6 -38 15 -38 20 0 8 -38 28 -152 79 -26 11
-52 21 -57 21 -5 0 -13 9 -16 20 -3 11 -13 20 -21 20 -8 0 -28 14 -44 30 -16
17 -37 30 -46 30 -10 0 -25 6 -33 13 -9 7 -41 24 -71 37 -30 13 -60 30 -66 37
-6 7 -18 13 -27 13 -9 0 -18 8 -21 18 -3 9 -20 23 -38 31 -18 7 -60 26 -92 42
-33 16 -66 29 -75 29 -24 1 -51 25 -51 46 0 28 -51 54 -102 53 -24 -1 -61 3
-83 10 -232 65 -394 91 -450 72z m604 -666 c9 -27 20 -55 26 -61 6 -7 17 -37
25 -68 8 -33 19 -56 26 -56 8 0 16 -11 20 -25 3 -14 12 -25 19 -25 14 0 35
-50 35 -81 0 -11 4 -19 9 -19 10 0 51 -104 51 -130 0 -26 26 -30 222 -30 l178
0 6 -24 c3 -13 2 -80 -3 -148 l-8 -123 -128 2 c-122 2 -128 1 -109 -15 11 -10
25 -42 32 -75 6 -31 16 -57 21 -57 5 0 9 -6 9 -14 0 -8 6 -21 13 -28 14 -15
37 -77 37 -101 0 -9 7 -17 15 -17 8 0 15 -7 15 -15 0 -8 5 -15 10 -15 6 0 10
-7 10 -15 0 -8 -4 -15 -10 -15 -16 0 -11 -27 6 -34 9 -3 14 -15 12 -28 -3 -21
-13 -24 -160 -47 -176 -27 -179 -27 -200 40 -6 22 -15 39 -20 39 -4 0 -8 7 -8
15 0 24 -22 65 -35 65 -7 0 -16 16 -19 35 -4 20 -13 35 -21 35 -7 0 -21 22
-30 50 -9 27 -20 50 -24 50 -5 0 -16 29 -26 65 -17 63 -18 65 -50 65 -18 0
-46 3 -62 6 -30 6 -31 5 -37 -43 -17 -129 -29 -173 -48 -173 -11 0 -18 -7 -18
-17 0 -36 -34 -203 -42 -203 -4 0 -8 -11 -8 -25 0 -14 -4 -25 -9 -25 -5 0 -11
-10 -13 -23 -2 -16 -11 -23 -30 -25 -16 -2 -28 -8 -28 -13 0 -5 -16 -9 -35 -9
-19 0 -35 4 -35 8 0 5 -55 14 -121 21 -116 12 -149 23 -149 50 0 6 6 11 13 12
10 0 10 2 0 6 -15 5 -18 43 -4 43 4 0 11 19 14 42 3 24 11 44 16 46 6 2 11 10
11 18 0 8 5 14 10 14 6 0 10 11 10 25 0 14 4 25 9 25 5 0 17 33 26 73 10 39
21 74 25 77 6 5 30 103 26 107 -1 1 -58 6 -127 10 l-124 8 -3 28 c-2 18 2 29
12 33 13 5 16 23 16 94 0 100 0 100 86 100 30 0 54 5 54 10 0 6 33 10 78 10
42 0 100 3 128 6 51 6 52 7 58 45 3 22 12 39 19 39 13 0 47 74 47 103 0 9 5
17 10 17 6 0 10 6 10 14 0 8 3 16 8 18 10 4 42 75 42 93 0 8 8 15 19 15 15 0
23 17 42 80 12 44 26 80 30 80 4 0 9 9 12 21 5 17 12 20 53 17 l48 -3 15 -50z"/>
<path d="M1442 1806 c-7 -15 -12 -35 -12 -46 0 -10 -6 -25 -12 -32 -13 -13
-32 -58 -49 -115 -7 -22 -16 -33 -28 -33 -12 0 -21 -9 -24 -27 -9 -44 -31
-103 -39 -103 -5 0 -8 -9 -8 -20 0 -11 -4 -20 -9 -20 -5 0 -15 -19 -23 -42
l-13 -43 -115 -2 c-63 -1 -148 -5 -187 -8 l-73 -7 0 -67 0 -68 53 -7 c28 -3
85 -6 125 -6 57 0 74 -3 79 -16 7 -19 -17 -124 -29 -124 -4 0 -8 -11 -8 -25 0
-15 -6 -25 -14 -25 -9 0 -17 -15 -21 -40 -4 -22 -10 -40 -14 -40 -4 0 -14 -26
-21 -57 -7 -32 -16 -60 -21 -63 -12 -8 -39 -143 -31 -151 10 -9 221 -31 232
-24 6 3 10 15 10 26 0 10 6 19 13 19 10 0 19 33 31 108 10 59 22 108 27 110 5
2 9 15 9 28 0 13 4 24 8 24 4 0 16 50 26 110 16 95 21 110 37 110 11 0 19 5
19 10 0 6 16 10 35 10 19 0 35 -4 35 -10 0 -5 20 -10 45 -10 25 0 45 -4 45 -9
0 -5 10 -11 23 -15 26 -6 42 -34 52 -90 4 -20 13 -36 20 -36 7 0 16 -11 19
-25 4 -14 12 -25 19 -25 7 0 19 -17 26 -37 8 -21 20 -43 27 -51 8 -7 14 -22
14 -32 0 -28 32 -90 46 -90 6 0 14 -18 18 -40 4 -26 11 -40 21 -40 8 0 15 4
15 9 0 4 41 14 90 21 76 11 90 16 90 31 0 11 -4 19 -10 19 -5 0 -12 11 -16 25
-3 14 -9 25 -13 25 -4 0 -13 24 -21 53 -7 28 -20 59 -30 67 -19 18 -36 60 -45
113 -3 21 -12 37 -19 37 -16 0 -41 83 -32 106 6 15 20 16 135 10 l128 -7 6 53
c4 29 7 68 7 85 l0 33 -187 2 -188 3 -3 28 c-2 15 -7 27 -12 27 -5 0 -14 25
-21 55 -7 31 -18 55 -25 55 -7 0 -16 9 -19 20 -3 11 -13 20 -21 20 -8 0 -14 7
-14 16 0 24 -31 114 -40 114 -7 0 -31 65 -44 123 -5 20 -12 27 -30 27 -14 0
-26 5 -28 11 -2 6 -9 -1 -16 -15z m87 -472 c19 -13 22 -22 17 -47 -8 -41 -20
-47 -88 -47 -50 0 -60 3 -74 25 -8 13 -14 32 -12 42 8 40 112 58 157 27z"/>
</g>
</svg>
